<svg width="124" height="28" viewBox="0 0 124 28" fill="none" xmlns="http://www.w3.org/2000/svg">
<path d="M9.82063 6.66256C4.20884 6.66256 0 10.8298 0 17.0211C0 23.2123 4.41679 27.4212 10.2753 27.4212C14.2374 27.4212 17.0849 25.8103 18.7762 23.6255L15.5572 20.8612C14.5258 22.1393 12.8761 23.2123 10.5221 23.2123C7.54986 23.2123 5.40384 21.4795 4.78555 18.632H19.4777C19.5193 18.2604 19.6024 17.5174 19.6024 16.7743C19.6024 10.913 15.7651 6.66256 9.82341 6.66256H9.82063ZM4.86873 14.9167C5.52861 12.2743 7.51104 10.8326 10.0674 10.8326C12.6238 10.8326 14.3594 12.4823 14.9361 14.9167H4.86595H4.86873Z" fill="#0F41FF"/>
<path d="M35.37 6.66262C32.7693 6.66262 30.2933 7.73562 28.602 9.75687H28.5604V6.95097H23.9385V27.0885H28.5604V16.9768C28.5604 13.0147 30.6233 10.8271 33.7591 10.8271C36.5234 10.8271 38.1343 12.1885 38.1343 16.4389V27.0858H42.7563V15.2411C42.7563 9.17461 39.784 6.65707 35.37 6.65707V6.66262Z" fill="#0F41FF"/>
<path d="M78.6566 14.8335C76.7158 14.0904 75.4792 13.3889 75.4792 12.3991C75.4792 11.1598 76.7574 10.6662 77.6668 10.6662C79.2361 10.6662 81.091 11.2845 82.7019 12.8122L85.0143 9.1801C82.7851 7.36403 80.4755 6.66256 77.9164 6.66256C73.7907 6.66256 70.8184 9.05533 70.8184 12.3575C70.8184 16.3196 73.6659 17.8057 76.9681 18.9591C79.6104 19.8658 80.9302 20.3621 80.9302 21.3935C80.9302 22.5913 79.8988 23.3732 78.1243 23.3732C75.6483 23.3732 73.9154 22.5885 72.3046 21.022L69.9922 24.4878C72.0966 26.3454 74.8609 27.4184 78.1215 27.4184C83.2398 27.4184 85.6326 24.6957 85.6326 21.3103C85.6326 17.3067 82.9514 16.5248 78.6594 14.8307L78.6566 14.8335Z" fill="#0F41FF"/>
<path d="M119.375 6.95091V9.38527H119.292C117.806 7.6108 115.618 6.66256 113.062 6.66256C107.533 6.66256 103.363 11.0378 103.363 17.1043C103.363 23.1708 107.531 27.4212 113.104 27.4212C115.868 27.4212 118.055 26.3482 119.5 24.4073H119.583V27.0885H124V6.95091H119.378H119.375ZM113.847 23.2096C110.422 23.2096 108.068 20.692 108.068 17.1431C108.068 13.2642 110.628 10.8298 113.847 10.8298C117.066 10.8298 119.583 13.5525 119.583 17.1431C119.583 20.7336 116.982 23.2096 113.847 23.2096Z" fill="#0F41FF"/>
<path d="M97.0916 23.071C95.7719 23.071 95.1536 22.3446 95.1536 20.2817V10.8326H101.054V6.95374H95.1536V0L90.5316 0.568389V6.95651H88.0557V10.8354H90.5316V20.7392C90.5316 25.2364 92.6776 27.424 96.1434 27.424C99.831 27.424 102.798 25.461 102.798 25.461L101.054 21.6819C100.557 21.973 98.4807 23.0738 97.0916 23.0738V23.071Z" fill="#0F41FF"/>
<path d="M57.1885 6.64597C51.4575 6.64597 46.8105 11.2929 46.8105 17.0239C46.8105 17.6838 46.8715 18.3243 46.9908 18.9509H51.8318C51.6266 18.3409 51.5157 17.6866 51.5157 17.0017C51.5157 13.7383 54.0554 11.0933 57.1885 11.0933C60.3215 11.0933 62.8585 13.7383 62.8585 17.0017C62.8585 20.2651 60.3188 22.9074 57.1885 22.9074C56.512 22.9074 55.8632 22.7854 55.2615 22.5581V27.2188C55.8853 27.3381 56.5314 27.3991 57.1885 27.3991C62.9195 27.3991 67.5636 22.7549 67.5636 17.0239C67.5636 11.2929 62.9195 6.64597 57.1885 6.64597Z" fill="#0F41FF"/>
<path d="M46.8125 20.4259V24.5987V24.6236H49.6101V27.399V27.4212H53.8051V27.399V20.4259V20.4037H46.8125V20.4259Z" fill="#0F41FF"/>
</svg>
